<?xml version="1.0" encoding="utf-8"?>
<!-- Generator: Adobe Illustrator 15.1.0, SVG Export Plug-In  -->
<!DOCTYPE svg PUBLIC "-//W3C//DTD SVG 1.1//EN" "http://www.w3.org/Graphics/SVG/1.1/DTD/svg11.dtd" [
	<!ENTITY ns_flows "http://ns.adobe.com/Flows/1.0/">
]>
<svg version="1.1"
	 xmlns="http://www.w3.org/2000/svg" xmlns:xlink="http://www.w3.org/1999/xlink" xmlns:a="http://ns.adobe.com/AdobeSVGViewerExtensions/3.0/"
	 x="0px" y="0px" width="400px" height="112px" viewBox="0 0.001 400 112"
	 overflow="visible" enable-background="new 0 0.001 400 112" xml:space="preserve">
<defs>
</defs>
<path fill="#eeeeee" d="M122.206,32.854v-1.933c0-0.562,0.195-1.036,0.588-1.429c0.392-0.394,0.868-0.591,1.428-0.591
	c0.561,0,1.051,0.197,1.472,0.591c0.42,0.393,0.63,0.868,0.63,1.429v1.933c0,0.618-0.21,1.137-0.63,1.558
	c-0.421,0.42-0.913,0.63-1.472,0.63c-0.561,0-1.037-0.21-1.428-0.63C122.4,33.991,122.206,33.473,122.206,32.854z M122.206,81.525
	V44.372c0-0.562,0.195-1.036,0.588-1.431c0.392-0.392,0.883-0.588,1.471-0.588c0.588,0,1.078,0.196,1.471,0.588
	c0.392,0.395,0.589,0.87,0.589,1.431v37.152c0,0.562-0.21,1.038-0.63,1.432c-0.421,0.393-0.913,0.588-1.472,0.588
	c-0.561,0-1.037-0.195-1.428-0.588C122.4,82.563,122.206,82.087,122.206,81.525z"/>
<path fill="#eeeeee" d="M167.378,42.941c0.392-0.392,0.868-0.588,1.429-0.588c0.559,0,1.037,0.196,1.43,0.588
	c0.39,0.395,0.588,0.87,0.588,1.431v37.152c0,0.562-0.198,1.038-0.588,1.432c-0.394,0.393-0.871,0.588-1.43,0.588
	c-0.561,0-1.037-0.195-1.429-0.588c-0.393-0.394-0.589-0.868-0.589-1.432v-6.137c-1.794,2.522-4.049,4.513-6.766,5.969
	c-2.719,1.458-5.62,2.188-8.7,2.188c-5.381,0-9.976-2.02-13.787-6.052c-3.812-4.035-5.715-8.884-5.715-14.543
	s1.903-10.509,5.715-14.542c3.811-4.035,8.405-6.054,13.787-6.054c3.081,0,5.98,0.729,8.7,2.187
	c2.716,1.458,4.972,3.419,6.766,5.885v-6.052C166.79,43.812,166.985,43.335,167.378,42.941z M135.855,62.949
	c0,4.596,1.527,8.506,4.582,11.727c3.053,3.224,6.696,4.834,10.927,4.834c4.23,0,7.86-1.61,10.886-4.834
	c3.026-3.221,4.539-7.131,4.539-11.727c0-4.597-1.513-8.52-4.539-11.771c-3.026-3.249-6.655-4.875-10.886-4.875
	s-7.874,1.626-10.927,4.875C137.382,54.431,135.855,58.354,135.855,62.949z"/>
<path fill="#eeeeee" d="M182.744,81.86c-0.281,1.123-0.925,1.685-1.933,1.685h-0.505c-0.617-0.168-1.064-0.532-1.345-1.093
	c-0.056-0.057-0.083-0.141-0.083-0.252l-0.084-0.168V44.456c0-0.562,0.195-1.037,0.588-1.431c0.392-0.391,0.869-0.588,1.43-0.588
	c0.559,0,1.022,0.197,1.386,0.588c0.364,0.395,0.547,0.87,0.547,1.431v3.951c3.306-3.979,7.41-5.971,12.314-5.971
	c4.903,0,8.997,1.642,12.274,4.917c3.275,3.278,4.917,7.216,4.917,11.812v22.356c0,0.562-0.198,1.038-0.588,1.432
	c-0.394,0.393-0.871,0.588-1.431,0.588c-0.562,0-1.037-0.195-1.43-0.588c-0.394-0.394-0.59-0.868-0.59-1.432V59.168
	c0-3.478-1.232-6.46-3.698-8.954c-2.466-2.493-5.451-3.74-8.952-3.74c-3.503,0-6.487,1.233-8.953,3.699
	c-2.467,2.466-3.755,5.463-3.867,8.996L182.744,81.86L182.744,81.86z"/>
<path fill="#eeeeee" d="M239.315,81.525V26.719c0-0.561,0.194-1.037,0.59-1.429c0.39-0.394,0.867-0.589,1.428-0.589
	s1.051,0.195,1.471,0.589c0.422,0.392,0.631,0.869,0.631,1.429v54.807c0,0.562-0.209,1.038-0.631,1.432
	c-0.42,0.393-0.91,0.588-1.471,0.588s-1.038-0.195-1.428-0.588C239.51,82.563,239.315,82.087,239.315,81.525z"/>
<path fill="#eeeeee" d="M250.276,66.73V44.288c0-0.562,0.194-1.036,0.588-1.431c0.392-0.392,0.867-0.589,1.43-0.589
	c0.561,0,1.036,0.197,1.43,0.589c0.392,0.395,0.588,0.87,0.588,1.431V66.73c0,3.531,1.231,6.529,3.698,8.995
	c2.466,2.467,5.438,3.729,8.91,3.783c3.531-0.056,6.542-1.316,9.037-3.783c2.493-2.466,3.739-5.464,3.739-8.995V44.288
	c0-0.562,0.211-1.036,0.631-1.431c0.421-0.392,0.91-0.589,1.473-0.589c0.561,0,1.035,0.197,1.428,0.589
	c0.394,0.395,0.59,0.87,0.59,1.431V66.73c0,4.652-1.64,8.617-4.918,11.896c-3.277,3.279-7.243,4.918-11.895,4.918
	c-4.652,0-8.604-1.64-11.854-4.918S250.276,71.383,250.276,66.73z"/>
<path fill="#eeeeee" d="M289.218,77.66c-0.952-0.843-1.038-1.736-0.252-2.691c0.337-0.447,0.784-0.698,1.345-0.756
	c0.562-0.054,1.064,0.113,1.516,0.505c4.37,3.194,8.35,4.792,11.937,4.792c3.585,0,6.416-0.841,8.49-2.522
	c2.072-1.398,3.096-3.037,3.068-4.917c-0.028-1.878-0.954-3.544-2.773-5.002c-1.823-1.456-4.778-2.521-8.87-3.192l-0.168-0.084
	c-4.369-0.783-7.479-1.853-9.329-3.195c-2.972-1.735-4.454-4.202-4.454-7.396c0-3.194,1.482-5.886,4.454-8.07
	c2.689-1.85,6.052-2.773,10.089-2.773c1.625,0,3.264,0.268,4.915,0.799c1.652,0.533,2.913,1.037,3.783,1.514
	c0.868,0.477,2.061,1.19,3.572,2.144c0.447,0.336,0.727,0.786,0.84,1.347c0.112,0.561,0.027,1.064-0.252,1.513
	c-0.281,0.45-0.701,0.729-1.261,0.84c-0.562,0.113-1.065,0.029-1.516-0.251c-1.398-0.952-2.449-1.639-3.149-2.06
	c-0.701-0.421-1.725-0.868-3.068-1.347c-1.345-0.476-2.635-0.714-3.864-0.714c-3.252,0-5.804,0.743-7.65,2.229
	c-1.85,1.484-2.773,3.041-2.773,4.666c0,1.626,0.783,3.055,2.354,4.286c1.962,1.347,4.764,2.299,8.405,2.856h0.168
	c3.645,0.562,6.979,1.682,10.005,3.362c3.082,2.019,4.622,4.723,4.622,8.11c0,3.393-1.526,6.223-4.58,8.49
	c-3.057,2.271-6.517,3.404-10.383,3.404C299.11,83.488,294.039,81.525,289.218,77.66z"/>
<path fill="#eeeeee" d="M323.903,81.525V26.719c0-0.561,0.192-1.037,0.588-1.429c0.392-0.394,0.869-0.589,1.43-0.589
	s1.051,0.195,1.471,0.589c0.42,0.392,0.631,0.869,0.631,1.429v39.592l24.379-24.293c0.951-0.952,1.903-0.952,2.856,0
	c0.447,0.394,0.672,0.854,0.672,1.388s-0.225,1.022-0.672,1.472L339.37,60.765l15.971,19.416c0.841,1.01,0.785,1.991-0.167,2.943
	c-0.337,0.279-0.841,0.42-1.514,0.42c-0.672,0-1.148-0.252-1.431-0.757l-15.804-19.082l-8.405,8.405v9.414
	c0,0.562-0.211,1.038-0.631,1.432c-0.42,0.393-0.91,0.588-1.471,0.588s-1.038-0.195-1.43-0.588
	C324.096,82.563,323.903,82.087,323.903,81.525z"/>
<path fill="#F15A22" d="M92.993,21.118c-8.684-5.017-17.372-10.03-26.056-15.045c-3.595-2.074-7.284-4.732-11.403-5.597
	c-4.438-0.931-9.601-0.57-13.589,1.73c-0.979,0.562-1.954,1.126-2.928,1.688C29.418,9.438,19.82,14.979,10.224,20.521
	C4.504,23.824,0.042,30.183,0.042,36.978c0,3.873,0,7.745,0,11.617c0,6.37,0,12.739,0,19.108c0,4.42-0.4,8.922,1.255,13.122
	c1.536,3.905,4.25,7.695,7.933,9.821c1.105,0.641,2.215,1.276,3.32,1.915c5.207,3.007,10.413,6.014,15.619,9.021
	c4.331,2.499,8.66,5.002,12.993,7.501c5.647,3.261,13.388,3.73,19.151,0.405c9.035-5.215,18.064-10.43,27.099-15.645
	c4.071-2.352,8.09-4.316,10.904-8.284c2.24-3.152,3.82-7.007,3.82-10.917c0-1.422,0-2.846,0-4.271c0-10.92,0-21.844,0-32.766
	C102.136,31.259,98.584,24.346,92.993,21.118C92.993,21.118,98.023,24.021,92.993,21.118z M6.482,72.4
	C6.479,62.392,6.479,52.383,6.476,42.376c0-1.357-0.072-2.748,0.055-4.103c0.43-4.662,3.22-9.495,7.044-12.199
	c3.299-2.338,7.08-4.146,10.576-6.163c5.294-3.058,10.587-6.114,15.884-9.171c1.019-0.591,2.03-1.206,3.067-1.771
	c2.161-1.248,4.708-1.784,7.182-1.883C51.59,7.035,52.9,7.107,54.19,7.318c1.711,0.279,2.606,1.59,3.733,2.845
	c7.568,8.412,13.025,20.352,5.455,30.553c-6.909,9.312-18.93,12.379-27.415,19.883c-9.568,8.463-13.661,20.548-9.121,32.786
	C18.489,88.56,6.476,83.918,6.482,72.4C6.482,72.4,6.476,77.474,6.482,72.4z M87.709,86.241c-8.367,4.833-16.735,9.66-25.104,14.493
	c-1.356,0.785-3.493-0.496-4.901-0.907c-3.194-0.933-6.058-3.102-8.614-5.165c-4.169-3.364-8.533-7.935-9.118-13.52
	c-0.574-5.493,3.183-10.521,6.811-14.225c4.25-4.336,9.478-7.486,13.912-11.611c4.529-4.21,8.576-9.273,10.521-15.221
	c4.091-12.514-3.466-23.897-12.918-31.485c3.602,1.727,7.007,3.96,10.46,5.956c5.294,3.057,10.59,6.114,15.884,9.171
	c1.023,0.589,2.06,1.156,3.067,1.771c4.071,2.352,6.985,7.122,7.797,11.688c0.709,4.032,0.196,8.502,0.196,12.567
	c0,6.454,0,12.908,0,19.361c0,1.438,0.083,2.912-0.048,4.35C95.198,78.413,92.05,83.735,87.709,86.241
	C87.709,86.241,92.108,83.704,87.709,86.241z"/>
</svg>
