<?xml version="1.0" encoding="utf-8"?>
<!-- Generator: Adobe Illustrator 15.1.0, SVG Export Plug-In . SVG Version: 6.00 Build 0)  -->
<!DOCTYPE svg PUBLIC "-//W3C//DTD SVG 1.1//EN" "http://www.w3.org/Graphics/SVG/1.1/DTD/svg11.dtd">
<svg version="1.1" id="Layer_1" xmlns="http://www.w3.org/2000/svg" xmlns:xlink="http://www.w3.org/1999/xlink" x="0px" y="0px"
	 width="363.5px" height="112px" viewBox="0 0 363.5 112" enable-background="new 0 0 363.5 112" xml:space="preserve">
<path fill="#F15A22" d="M92.993,21.118c-8.684-5.017-17.372-10.03-26.056-15.045c-3.595-2.074-7.284-4.732-11.403-5.597
	c-4.438-0.931-9.601-0.57-13.589,1.73c-0.979,0.562-1.954,1.126-2.928,1.688C29.418,9.438,19.82,14.979,10.224,20.521
	c-5.72,3.303-10.182,9.662-10.182,16.457c0,3.873,0,7.745,0,11.617c0,6.37,0,12.739,0,19.108c0,4.42-0.4,8.922,1.255,13.122
	c1.536,3.905,4.25,7.694,7.933,9.821c1.105,0.641,2.215,1.275,3.32,1.914c5.207,3.008,10.413,6.015,15.619,9.021
	c4.331,2.499,8.66,5.002,12.993,7.501c5.647,3.261,13.388,3.729,19.151,0.405c9.035-5.215,18.064-10.43,27.099-15.646
	c4.071-2.352,8.09-4.315,10.904-8.284c2.24-3.151,3.82-7.007,3.82-10.916c0-1.422,0-2.847,0-4.271c0-10.92,0-21.844,0-32.766
	C102.136,31.259,98.584,24.346,92.993,21.118C92.993,21.118,98.023,24.021,92.993,21.118z M6.482,72.4
	C6.479,62.393,6.479,52.383,6.476,42.376c0-1.357-0.072-2.748,0.055-4.103c0.43-4.662,3.22-9.495,7.044-12.199
	c3.299-2.338,7.08-4.146,10.576-6.163c5.294-3.058,10.587-6.114,15.884-9.171c1.019-0.591,2.03-1.206,3.067-1.771
	c2.161-1.248,4.708-1.784,7.182-1.883C51.59,7.035,52.9,7.107,54.19,7.318c1.711,0.279,2.606,1.59,3.733,2.845
	c7.568,8.412,13.025,20.352,5.455,30.553c-6.909,9.312-18.93,12.379-27.415,19.884c-9.568,8.463-13.661,20.547-9.121,32.785
	C18.489,88.561,6.476,83.918,6.482,72.4C6.482,72.4,6.476,77.475,6.482,72.4z M87.709,86.241
	c-8.367,4.833-16.735,9.659-25.104,14.493c-1.356,0.785-3.493-0.496-4.901-0.907c-3.194-0.933-6.058-3.103-8.614-5.165
	c-4.169-3.364-8.533-7.936-9.118-13.52c-0.574-5.494,3.183-10.521,6.811-14.226c4.25-4.336,9.478-7.485,13.912-11.611
	c4.529-4.21,8.576-9.273,10.521-15.221C75.307,27.571,67.75,16.188,58.298,8.6c3.602,1.727,7.007,3.96,10.46,5.956
	c5.294,3.057,10.59,6.114,15.884,9.171c1.023,0.589,2.06,1.156,3.067,1.771c4.071,2.352,6.985,7.122,7.797,11.688
	c0.709,4.032,0.196,8.502,0.196,12.567c0,6.454,0,12.908,0,19.361c0,1.438,0.083,2.911-0.048,4.35
	C95.198,78.413,92.05,83.734,87.709,86.241C87.709,86.241,92.108,83.704,87.709,86.241z"/>
<g>
	<path fill="#444444" d="M120.537,75.084c-0.628-0.646-0.942-1.49-0.942-2.531V40.935c0-1.041,0.314-1.876,0.942-2.505
		c0.628-0.628,1.463-0.942,2.505-0.942c1.077,0,1.93,0.314,2.558,0.942c0.628,0.629,0.943,1.464,0.943,2.505v31.618
		c0,1.041-0.315,1.885-0.943,2.531c-0.628,0.646-1.481,0.969-2.558,0.969C122,76.053,121.165,75.73,120.537,75.084z"/>
	<path fill="#444444" d="M169.472,72.982c0,0.826-0.333,1.527-0.997,2.102c-0.665,0.574-1.427,0.861-2.289,0.861
		c-0.575,0-1.114-0.152-1.616-0.457c-0.503-0.305-0.898-0.781-1.185-1.428l-3.232-7.219h-18.96l-3.232,7.219
		c-0.288,0.646-0.682,1.123-1.185,1.428c-0.503,0.305-1.06,0.457-1.67,0.457c-0.827,0-1.581-0.287-2.262-0.861
		c-0.683-0.574-1.023-1.275-1.023-2.102c0-0.465,0.107-0.934,0.323-1.4l14.866-31.94c0.323-0.718,0.816-1.266,1.481-1.643
		c0.664-0.377,1.374-0.566,2.128-0.566c0.754,0,1.462,0.188,2.127,0.566c0.664,0.377,1.158,0.925,1.481,1.643l14.92,31.94
		C169.364,72.049,169.472,72.518,169.472,72.982z M143.563,61.457h14.22l-7.11-15.998L143.563,61.457z"/>
	<path fill="#444444" d="M205.855,38.43c0.592,0.629,0.889,1.464,0.889,2.505v31.618c0,1.041-0.305,1.885-0.916,2.531
		s-1.4,0.969-2.369,0.969c-1.15,0-2.029-0.412-2.641-1.238l-19.659-25.585v23.323c0,1.041-0.288,1.885-0.862,2.531
		c-0.575,0.646-1.365,0.969-2.37,0.969c-1.005,0-1.796-0.322-2.37-0.969c-0.575-0.646-0.862-1.49-0.862-2.531V40.935
		c0-1.041,0.305-1.876,0.916-2.505c0.61-0.628,1.418-0.942,2.424-0.942c1.113,0,1.975,0.413,2.585,1.239l19.606,25.477V40.935
		c0-1.041,0.297-1.876,0.889-2.505c0.594-0.628,1.373-0.942,2.344-0.942C204.463,37.487,205.264,37.802,205.855,38.43z"/>
	<path fill="#444444" d="M230.389,74.869c-0.574-0.574-0.861-1.365-0.861-2.371V40.935c0-1.041,0.313-1.876,0.942-2.505
		c0.628-0.628,1.463-0.942,2.505-0.942c1.077,0,1.93,0.314,2.559,0.942c0.628,0.629,0.942,1.464,0.942,2.505V70.02h15.136
		c2.154,0,3.231,0.953,3.231,2.855c0,1.904-1.077,2.855-3.231,2.855h-18.799C231.771,75.73,230.963,75.443,230.389,74.869z"/>
	<path fill="#444444" d="M261.737,72.176c-2.693-2.693-4.04-6.625-4.04-11.797V40.935c0-1.041,0.305-1.876,0.916-2.505
		c0.61-0.628,1.436-0.942,2.478-0.942c1.041,0,1.867,0.314,2.478,0.942c0.61,0.629,0.916,1.464,0.916,2.505v19.821
		c0,3.268,0.771,5.736,2.316,7.406c1.543,1.67,3.806,2.504,6.786,2.504c2.944,0,5.188-0.842,6.733-2.531
		c1.543-1.688,2.315-4.146,2.315-7.379V40.935c0-1.041,0.305-1.876,0.916-2.505c0.61-0.628,1.436-0.942,2.478-0.942
		c1.041,0,1.867,0.314,2.478,0.942c0.61,0.629,0.916,1.464,0.916,2.505v19.444c0,5.135-1.347,9.059-4.04,11.77
		c-2.692,2.711-6.625,4.066-11.796,4.066C268.38,76.215,264.431,74.869,261.737,72.176z"/>
	<path fill="#444444" d="M302.7,75.111c-2.46-0.736-4.463-1.732-6.006-2.99c-0.826-0.609-1.239-1.473-1.239-2.586
		c0-0.754,0.224-1.408,0.674-1.965c0.448-0.557,0.978-0.836,1.589-0.836c0.646,0,1.382,0.252,2.208,0.754
		c1.544,1.113,3.159,1.922,4.848,2.424c1.688,0.504,3.555,0.754,5.602,0.754c2.621,0,4.633-0.457,6.033-1.373
		s2.101-2.252,2.101-4.012c0-1.365-0.655-2.416-1.966-3.152c-1.312-0.734-3.493-1.445-6.545-2.127
		c-3.16-0.682-5.728-1.473-7.702-2.369c-1.976-0.898-3.466-2.047-4.471-3.448c-1.006-1.4-1.508-3.178-1.508-5.333
		c0-2.226,0.628-4.219,1.885-5.979c1.257-1.759,3.007-3.132,5.252-4.121c2.243-0.987,4.767-1.481,7.567-1.481
		c5.135,0,9.318,1.365,12.551,4.094c0.466,0.396,0.798,0.781,0.996,1.158c0.197,0.377,0.296,0.854,0.296,1.427
		c0,0.754-0.225,1.41-0.673,1.966c-0.449,0.558-0.979,0.835-1.589,0.835c-0.359,0-0.692-0.054-0.997-0.162
		c-0.305-0.107-0.709-0.305-1.212-0.592c-1.473-1.077-2.899-1.876-4.281-2.397c-1.383-0.52-3.08-0.781-5.091-0.781
		c-2.442,0-4.372,0.494-5.79,1.481c-1.419,0.988-2.128,2.362-2.128,4.121c0,1.473,0.628,2.604,1.886,3.394
		c1.257,0.79,3.394,1.526,6.409,2.208c3.196,0.719,5.791,1.518,7.783,2.397c1.993,0.88,3.52,2.001,4.579,3.367
		c1.059,1.365,1.589,3.07,1.589,5.117c0,2.227-0.62,4.191-1.858,5.896c-1.239,1.707-2.981,3.035-5.225,3.986
		c-2.245,0.951-4.821,1.428-7.729,1.428C307.771,76.215,305.159,75.846,302.7,75.111z"/>
	<path fill="#444444" d="M362.298,72.822c0,0.826-0.314,1.553-0.942,2.18c-0.629,0.629-1.373,0.943-2.235,0.943
		c-0.898,0-1.724-0.377-2.478-1.131L338.706,58.01v14.543c0,1.041-0.314,1.885-0.942,2.531c-0.629,0.646-1.481,0.969-2.559,0.969
		c-1.042,0-1.877-0.322-2.505-0.969c-0.629-0.646-0.942-1.49-0.942-2.531V40.935c0-1.041,0.313-1.876,0.942-2.505
		c0.628-0.628,1.463-0.942,2.505-0.942c1.077,0,1.93,0.314,2.559,0.942c0.628,0.629,0.942,1.464,0.942,2.505v13.842l17.344-16.266
		c0.646-0.646,1.382-0.97,2.209-0.97c0.825,0,1.553,0.315,2.181,0.942c0.628,0.629,0.943,1.356,0.943,2.182
		c0,0.827-0.359,1.581-1.078,2.262l-14.488,13.25l15.404,14.329C361.938,71.188,362.298,71.959,362.298,72.822z"/>
</g>
</svg>
